<?xml version="1.0" encoding="utf-8"?>
<!-- Generator: Adobe Illustrator 25.0.0, SVG Export Plug-In . SVG Version: 6.00 Build 0)  -->
<svg version="1.1" id="Layer_3" xmlns="http://www.w3.org/2000/svg" xmlns:xlink="http://www.w3.org/1999/xlink" x="0px" y="0px"
	 viewBox="0 0 1304 752" style="enable-background:new 0 0 1304 752;" xml:space="preserve">
<style type="text/css">
	.st0{fill:#9CD199;}
	.st1{fill:#171616;}
</style>
<g>
	<path class="st0" d="M816.29,295.99c0,0-23.79-5.73-34.97-54.65c-11.18-48.92-10.37-74.59,7.42-76.81
		c17.8-2.21,35.31,16.93,51.31,32.67c16,15.74,26.41,51.93,21.8,65.42C857.24,276.1,841.97,304.14,816.29,295.99z"/>
	<path class="st0" d="M874.11,190.59c0,0-18.27,17.5-48.16-27.87c-29.9-45.37-20.13-75.24-7.1-84.45
		c13.02-9.21,25.46-13.05,37.72,2.76c12.26,15.8,32.42,49.35,33.12,60.95C890.38,153.57,897,175.68,874.11,190.59z"/>
	<path class="st0" d="M944.38,154.2c0,0-25.53,5.33-50.92-44.65c-25.39-49.98-28-62.64-22.63-67.62c5.37-4.98,10.42-8.96,28.51-7.53
		s35.89,7.32,48.36,26.8s20.81,36.48,22.79,51.14C972.47,127,971.02,152.68,944.38,154.2z"/>
	<path class="st0" d="M1010.66,181.52c0,0-27.9-39.02-28.85-64.73c-0.95-25.71-5.75-52.97,6.6-52.76
		c12.35,0.22,20.9-4.41,42.58,11.24c21.68,15.66,28.06,20.82,32.35,41.45s4.25,51.68-10.44,59.04
		C1038.22,183.13,1015.96,189.45,1010.66,181.52z"/>
	<path class="st0" d="M983.77,314.45c0,0-21.35,7.06-36.79,23.74c-15.43,16.68-32.77,23.59-43.53,25.11
		c-10.75,1.53-40.3-9.81-47.59-26.16c-7.29-16.35-1.36-46.76,15.42-55.06c16.78-8.3,22.61-11.71,22.74-29.74
		s-1.34-49.83,20.84-61.86s46.49-17.96,57.64-5.78c11.15,12.18,19.64,23.91,28.12,20.95c8.48-2.96,38.73-9.91,51.33,0.81
		c12.6,10.72,33.04,36.73,25.2,56.55s-13.13,33.62-33.95,36.36C1022.39,302.15,1001.45,305.97,983.77,314.45z"/>
</g>
<g>
	<path class="st1" d="M41.46,59.01h114.58c12.77,0,24.5,1.99,35.19,5.97c10.69,3.98,19.91,9.36,27.66,16.12
		c7.75,6.77,13.8,14.57,18.17,23.41c4.36,8.84,6.55,18.06,6.55,27.66c0,11.57-1.72,22.4-5.16,32.49
		c-3.44,10.1-8.76,18.85-15.96,26.27c-7.2,7.42-16.32,13.29-27.34,17.6c-11.02,4.31-24.06,6.47-39.12,6.47h-34.54v47.31h22.75v44.85
		H41.46v-44.85h25.7V104.02h-25.7V59.01z M121.51,104.02v66.62h22.43c12.44,0,22.32-2.62,29.63-7.86
		c7.31-5.24,10.97-13.53,10.97-24.88c0-10.58-3.44-18.88-10.31-24.88c-6.88-6-16.97-9-30.28-9H121.51z"/>
	<path class="st1" d="M364.44,137.58h80.21v124.73h20.46v44.85h-71.86v-14.4c-5.79,5.24-12.55,9.28-20.3,12.11
		c-7.75,2.84-16.7,4.26-26.85,4.26c-9.39,0-18.23-1.47-26.52-4.42c-8.29-2.95-15.52-7.39-21.69-13.34
		c-6.17-5.95-11.02-13.39-14.57-22.34c-3.55-8.95-5.32-19.48-5.32-31.59v-55h-22.1v-44.85h74.97v99.85
		c0,11.35,2.89,19.83,8.68,25.45c5.78,5.62,13.31,8.43,22.59,8.43c6.55,0,12.49-2.02,17.84-6.06c5.35-4.04,9.22-9.49,11.62-16.37
		v-66.46h-27.17V137.58z"/>
	<path class="st1" d="M615.87,298.32c-6.11,3.49-12.22,6-18.33,7.53c-6.11,1.53-12.33,2.29-18.66,2.29
		c-13.09,0-25.15-2.24-36.17-6.71c-11.02-4.47-20.54-10.67-28.56-18.58c-8.02-7.91-14.27-17.27-18.74-28.07
		c-4.48-10.8-6.71-22.53-6.71-35.19c0-11.89,2.15-23.11,6.47-33.64c4.31-10.53,10.34-19.75,18.09-27.66
		c7.75-7.91,17.02-14.16,27.83-18.74c10.8-4.58,22.53-6.93,35.19-7.04c7.75,0.11,14.87,0.93,21.36,2.46
		c6.49,1.53,12.57,3.6,18.25,6.22v-3.6h49.6v162.54c0,14.29-2.46,26.65-7.37,37.08c-4.91,10.42-11.49,19.04-19.72,25.86
		c-8.24,6.82-17.82,11.89-28.73,15.22c-10.91,3.33-22.37,4.99-34.38,4.99c-14.84,0-28.56-2.02-41.17-6.06
		c-12.6-4.04-23.82-9.49-33.64-16.37l20.46-36.34c7.53,4.8,15.71,8.59,24.55,11.38c8.84,2.78,18.66,4.17,29.46,4.17
		c5.89,0,11.32-0.66,16.29-1.96c4.96-1.31,9.27-3.52,12.93-6.63c3.65-3.11,6.52-7.28,8.59-12.52c2.07-5.24,3.11-11.84,3.11-19.81
		V298.32z M580.51,262.8c7.64,0,14.54-1.94,20.71-5.81c6.16-3.87,11.05-8.97,14.65-15.31l0.33-41.25
		c-3.71-6.88-8.79-12.33-15.22-16.37c-6.44-4.04-13.42-6.11-20.95-6.22c-5.35,0.11-10.59,1.17-15.71,3.19
		c-5.13,2.02-9.57,4.89-13.34,8.59c-3.77,3.71-6.74,8.1-8.92,13.18c-2.18,5.07-3.27,10.72-3.27,16.94c0,6.55,1.09,12.5,3.27,17.84
		c2.18,5.35,5.13,9.88,8.84,13.59c3.71,3.71,8.1,6.58,13.18,8.59C569.14,261.8,574.62,262.8,580.51,262.8z"/>
</g>
<g>
	<path class="st1" d="M204.01,462.37c-6.11-8.73-11.62-14.92-16.53-18.58c-4.91-3.65-10.21-6.27-15.88-7.86
		c-5.68-1.58-11.62-2.37-17.84-2.37c-9.17,0-17.68,2.05-25.54,6.14c-7.86,4.09-14.65,9.66-20.38,16.7
		c-5.73,7.04-10.23,15.22-13.5,24.55c-3.27,9.33-4.91,19.23-4.91,29.71c0,10.59,1.61,20.54,4.83,29.87
		c3.22,9.33,7.67,17.49,13.34,24.47c5.67,6.99,12.44,12.52,20.3,16.62c7.86,4.09,16.48,6.14,25.86,6.14
		c6.55,0,12.66-1.06,18.33-3.19c5.67-2.13,10.83-4.94,15.47-8.43c4.64-3.49,8.7-7.5,12.19-12.03c3.49-4.53,6.22-9.25,8.18-14.16
		l52.71,14.73c-3.38,10.7-8.35,20.6-14.9,29.71c-6.55,9.11-14.43,17-23.65,23.65c-9.22,6.66-19.59,11.9-31.1,15.71
		c-11.51,3.82-23.93,5.73-37.24,5.73c-11.24,0-21.99-1.53-32.25-4.58c-10.26-3.05-19.83-7.37-28.73-12.93
		c-8.9-5.57-16.97-12.28-24.23-20.13c-7.26-7.86-13.45-16.56-18.58-26.11c-5.13-9.55-9.11-19.81-11.95-30.77
		c-2.84-10.97-4.26-22.4-4.26-34.29c0-17.79,3.11-34.46,9.33-50.01c6.22-15.55,14.73-29.14,25.54-40.76s23.49-20.79,38.06-27.5
		s30.25-10.07,47.06-10.07c13.42,0,24.72,1.67,33.88,4.99c9.17,3.33,19.26,9.9,30.28,19.72h36.67v55.33H204.01z"/>
	<path class="st1" d="M286.67,380.36h76.44V481.2c6.44-5.89,13.5-10.5,21.2-13.83c7.69-3.33,16.18-4.99,25.45-4.99
		c20.4,0,36.01,5.7,46.81,17.11c10.8,11.4,16.21,28.07,16.21,50.01v60.73h24.88v44.85h-75.79v-94.12c0-9.49-2.35-16.97-7.04-22.42
		c-4.69-5.46-10.75-8.18-18.17-8.18c-4.91,0-10.26,1.37-16.04,4.09c-5.79,2.73-11.62,6.71-17.51,11.95v63.84h24.88v44.85H286.67
		v-44.85h26.19v-165h-26.19V380.36z"/>
	<path class="st1" d="M621.58,625.9c-3.82,2.4-7.31,4.45-10.48,6.14c-3.17,1.69-6.33,3.05-9.49,4.09c-3.17,1.04-6.44,1.8-9.82,2.29
		c-3.38,0.49-7.09,0.74-11.13,0.74c-10.15,0-19.23-1.39-27.25-4.17c-8.02-2.78-14.79-6.6-20.3-11.46
		c-5.51-4.85-9.74-10.58-12.69-17.19c-2.95-6.6-4.42-13.78-4.42-21.53c0-7.86,1.5-15.11,4.5-21.77c3-6.66,7.34-12.36,13.01-17.11
		c5.67-4.75,12.63-8.46,20.87-11.13c8.24-2.67,17.65-4.01,28.24-4.01c7.75,0,14.81,0.41,21.2,1.23s12.3,1.83,17.76,3.03v-5.24
		c0-4.26-0.82-7.94-2.46-11.05s-3.93-5.67-6.88-7.69c-2.95-2.02-6.49-3.49-10.64-4.42c-4.15-0.93-8.68-1.39-13.59-1.39
		c-10.26,0-19.29,1.01-27.09,3.03c-7.8,2.02-15.31,4.94-22.51,8.76l-15.71-31.76c11.13-7.64,22.78-13.48,34.95-17.51
		c12.17-4.04,25.07-6.06,38.71-6.06c10.58,0,20.38,1.17,29.38,3.52c9,2.35,16.72,6.17,23.16,11.46c6.44,5.29,11.48,12.2,15.14,20.71
		c3.66,8.51,5.48,18.88,5.48,31.1v61.71h22.75v44.85h-70.71V625.9z M584.26,600.53c7.75,0,14.79-1.25,21.12-3.77
		c6.33-2.51,11.73-5.57,16.21-9.17v-21.61h-39.29c-2.51,0-4.97,0.38-7.37,1.15c-2.4,0.76-4.56,1.86-6.47,3.27
		c-1.91,1.42-3.44,3.17-4.58,5.24c-1.15,2.07-1.72,4.48-1.72,7.2c0,5.02,1.83,9.22,5.48,12.6
		C571.3,598.84,576.83,600.53,584.26,600.53z"/>
	<path class="st1" d="M727.16,465.48h77.59v14.73c6.98-5.57,14.84-9.99,23.57-13.26c8.73-3.27,17.73-4.91,27.01-4.91
		c12.88,0,23.92,2.27,33.15,6.79c9.22,4.53,16.45,11.43,21.69,20.71c3.6-4.04,7.67-7.72,12.2-11.05c4.53-3.33,9.36-6.22,14.49-8.68
		c5.13-2.46,10.5-4.36,16.12-5.73c5.62-1.36,11.38-2.05,17.27-2.05c20.73,0,36.67,5.73,47.8,17.19
		c11.13,11.46,16.7,28.21,16.7,50.25v60.73h24.06v44.85h-77.43v-97.23c0-9.6-2.48-17.13-7.45-22.59
		c-4.97-5.46-11.87-8.18-20.71-8.18c-6.11,0-11.87,1.45-17.27,4.34c-5.4,2.89-10.78,7.89-16.12,14.98c0.11,1.2,0.16,2.43,0.16,3.68
		c0,1.26,0,2.54,0,3.85v56.31h24.55v44.85h-77.43v-97.56c0-4.58-0.71-8.73-2.13-12.44c-1.42-3.71-3.38-6.88-5.89-9.49
		c-2.51-2.62-5.48-4.67-8.92-6.14c-3.44-1.47-7.23-2.26-11.38-2.37c-5.46-0.11-11.1,1.09-16.94,3.6
		c-5.84,2.51-11.43,7.15-16.78,13.91v65.64h27.17v44.85H726.83v-44.85h25.21v-79.88h-24.88V465.48z"/>
	<path class="st1" d="M1086.13,465.48h73.99v2.46c5.24-2.29,10.58-4.12,16.04-5.48c5.46-1.36,11.07-2.05,16.86-2.05
		c12.44,0,24.01,2.35,34.7,7.04c10.69,4.69,19.97,11.08,27.83,19.15c7.86,8.08,14,17.51,18.42,28.32
		c4.42,10.8,6.63,22.26,6.63,34.38c0,12.22-2.16,23.74-6.47,34.54c-4.31,10.8-10.34,20.22-18.09,28.24
		c-7.75,8.02-17,14.35-27.75,18.99c-10.75,4.64-22.51,6.96-35.28,6.96c-7.2,0-13.91-0.68-20.13-2.05
		c-6.22-1.36-12.22-3.3-18.01-5.81v37.16h32.41v44.85h-110.65v-44.85h27.83V510.33h-18.33V465.48z M1189.42,505.59
		c-6.88,0-13.32,1.8-19.32,5.4c-6,3.6-11.08,8.68-15.22,15.22v47.8c3.49,5.57,8.24,10.1,14.24,13.59c6,3.49,12.77,5.24,20.3,5.24
		c5.57,0,10.86-1.06,15.88-3.19c5.02-2.13,9.38-5.13,13.09-9c3.71-3.87,6.66-8.46,8.84-13.75c2.18-5.29,3.27-11.05,3.27-17.27
		c0-6.88-1.06-13.04-3.19-18.5c-2.13-5.46-5.05-10.07-8.76-13.83c-3.71-3.77-8.08-6.66-13.1-8.68
		C1200.44,506.6,1195.09,505.59,1189.42,505.59z"/>
</g>
</svg>
